<svg width="19" height="19" viewBox="0 0 19 19" fill="none" xmlns="http://www.w3.org/2000/svg">
<path d="M8.07019 11.0731L6.02918 9.03204C5.85714 8.86001 5.64601 8.77399 5.39577 8.77399C5.14553 8.77399 4.92657 8.86782 4.73889 9.0555C4.56685 9.22754 4.48083 9.4465 4.48083 9.71238C4.48083 9.97826 4.56685 10.1972 4.73889 10.3693L7.41331 13.0437C7.58535 13.2157 7.80431 13.3017 8.07019 13.3017C8.33607 13.3017 8.55503 13.2157 8.72707 13.0437L14.0525 7.71829C14.2245 7.54625 14.3105 7.33511 14.3105 7.08488C14.3105 6.83464 14.2167 6.61568 14.029 6.428C13.857 6.25596 13.638 6.16994 13.3721 6.16994C13.1062 6.16994 12.8873 6.25596 12.7152 6.428L8.07019 11.0731ZM9.38394 18.7679C8.08583 18.7679 6.86592 18.5214 5.72421 18.0284C4.58249 17.5361 3.58936 16.8676 2.7448 16.0231C1.90025 15.1785 1.2318 14.1854 0.739455 13.0437C0.246485 11.902 0 10.6821 0 9.38394C0 8.08583 0.246485 6.86592 0.739455 5.72421C1.2318 4.58249 1.90025 3.58936 2.7448 2.7448C3.58936 1.90025 4.58249 1.23149 5.72421 0.738516C6.86592 0.246172 8.08583 0 9.38394 0C10.6821 0 11.902 0.246172 13.0437 0.738516C14.1854 1.23149 15.1785 1.90025 16.0231 2.7448C16.8676 3.58936 17.5361 4.58249 18.0284 5.72421C18.5214 6.86592 18.7679 8.08583 18.7679 9.38394C18.7679 10.6821 18.5214 11.902 18.0284 13.0437C17.5361 14.1854 16.8676 15.1785 16.0231 16.0231C15.1785 16.8676 14.1854 17.5361 13.0437 18.0284C11.902 18.5214 10.6821 18.7679 9.38394 18.7679Z" fill="#EBE634"/>
</svg>
